<mxfile host="app.diagrams.net" modified="2020-12-05T17:08:15.026Z" agent="5.0 (Windows)" etag="6JX3OakkoEyYRRSev_fQ" version="13.10.9" type="github">
  <diagram id="6a731a19-8d31-9384-78a2-239565b7b9f0" name="Page-1">
    <mxGraphModel dx="1648" dy="749" grid="1" gridSize="10" guides="1" tooltips="1" connect="1" arrows="1" fold="1" page="1" pageScale="1" pageWidth="662" pageHeight="375" background="#ffffff" math="0" shadow="0">
      <root>
        <mxCell id="0" />
        <mxCell id="1" parent="0" />
        <mxCell id="1350" value="Productivity" style="ellipse;whiteSpace=wrap;html=1;shadow=0;fontFamily=Helvetica;fontSize=40;align=center;strokeWidth=3;strokeColor=none;fillColor=#F2E479;fontColor=#384023;gradientColor=#DBCF6E;fontStyle=0;perimeter=ellipsePerimeter;" parent="1" vertex="1">
          <mxGeometry x="171" y="119.75" width="290" height="121.25" as="geometry" />
        </mxCell>
        <mxCell id="iaC6b17GLmA-YWx4HKnk-1615" style="edgeStyle=none;rounded=0;sketch=1;fillWeight=0;hachureGap=4;hachureAngle=-41;jiggle=1;simplification=0;orthogonalLoop=1;jettySize=auto;html=1;exitX=0;exitY=0.75;exitDx=0;exitDy=0;startSize=5;endArrow=none;strokeColor=#384023;strokeWidth=3;fillColor=#b0e3e6;fontSize=35;fontColor=#384023;" parent="1" source="iaC6b17GLmA-YWx4HKnk-1555" target="1350" edge="1">
          <mxGeometry relative="1" as="geometry" />
        </mxCell>
        <mxCell id="iaC6b17GLmA-YWx4HKnk-1555" value="Sublime" style="rounded=1;strokeWidth=3;shadow=0;html=1;fontSize=20;strokeColor=none;fontColor=#EEEEEE;arcSize=60;absoluteArcSize=0;perimeter=ellipsePerimeter;fillColor=#8C4942;gradientColor=#753D37;" parent="1" vertex="1">
          <mxGeometry x="421" y="81" width="150" height="40" as="geometry" />
        </mxCell>
        <mxCell id="iaC6b17GLmA-YWx4HKnk-1620" style="edgeStyle=none;rounded=0;sketch=1;fillWeight=0;hachureGap=4;hachureAngle=-41;jiggle=1;simplification=0;orthogonalLoop=1;jettySize=auto;html=1;exitX=1;exitY=0.75;exitDx=0;exitDy=0;entryX=0.024;entryY=0.687;entryDx=0;entryDy=0;entryPerimeter=0;startSize=5;endArrow=none;strokeColor=#384023;strokeWidth=3;fillColor=#b0e3e6;fontSize=35;fontColor=#384023;" parent="1" source="iaC6b17GLmA-YWx4HKnk-1567" target="1350" edge="1">
          <mxGeometry relative="1" as="geometry" />
        </mxCell>
        <mxCell id="iaC6b17GLmA-YWx4HKnk-1567" value="Git (hub/lab)" style="rounded=1;strokeWidth=3;shadow=0;html=1;fontSize=20;strokeColor=none;glass=0;perimeterSpacing=2;arcSize=60;fillOpacity=100;fontColor=#EEEEEE;absoluteArcSize=0;perimeter=ellipsePerimeter;fillColor=#8C4942;gradientColor=#753D37;" parent="1" vertex="1">
          <mxGeometry x="11" y="181" width="150" height="40" as="geometry" />
        </mxCell>
        <mxCell id="iaC6b17GLmA-YWx4HKnk-1613" style="edgeStyle=none;rounded=0;sketch=1;fillWeight=0;hachureGap=4;hachureAngle=-41;jiggle=1;simplification=0;orthogonalLoop=1;jettySize=auto;html=1;exitX=0.592;exitY=0.984;exitDx=0;exitDy=0;startSize=5;endArrow=none;strokeColor=#384023;strokeWidth=3;fillColor=#b0e3e6;fontSize=35;fontColor=#384023;exitPerimeter=0;" parent="1" source="iaC6b17GLmA-YWx4HKnk-1569" target="1350" edge="1">
          <mxGeometry relative="1" as="geometry" />
        </mxCell>
        <mxCell id="iaC6b17GLmA-YWx4HKnk-1569" value="Office" style="rounded=1;strokeWidth=3;shadow=0;html=1;fontSize=35;strokeColor=none;fillColor=#8C342A;glass=0;perimeterSpacing=2;arcSize=60;fillOpacity=100;fontColor=#EEEEEE;absoluteArcSize=0;gradientColor=#7D2F26;perimeter=ellipsePerimeter;" parent="1" vertex="1">
          <mxGeometry x="131" y="1" width="180" height="60" as="geometry" />
        </mxCell>
        <mxCell id="iaC6b17GLmA-YWx4HKnk-1619" style="edgeStyle=none;rounded=0;sketch=1;fillWeight=0;hachureGap=4;hachureAngle=-41;jiggle=1;simplification=0;orthogonalLoop=1;jettySize=auto;html=1;startSize=5;endArrow=none;strokeColor=#384023;strokeWidth=3;fillColor=#b0e3e6;fontSize=35;fontColor=#384023;" parent="1" source="iaC6b17GLmA-YWx4HKnk-1579" target="1350" edge="1">
          <mxGeometry relative="1" as="geometry" />
        </mxCell>
        <mxCell id="iaC6b17GLmA-YWx4HKnk-1579" value="Windows" style="rounded=1;strokeWidth=3;shadow=0;html=1;fontSize=35;strokeColor=none;fillColor=#8C342A;glass=0;perimeterSpacing=2;arcSize=60;fillOpacity=100;fontColor=#EEEEEE;absoluteArcSize=0;gradientColor=#7D2F26;perimeter=ellipsePerimeter;" parent="1" vertex="1">
          <mxGeometry x="1" y="76" width="180" height="60" as="geometry" />
        </mxCell>
        <mxCell id="iaC6b17GLmA-YWx4HKnk-1614" style="edgeStyle=none;rounded=0;sketch=1;fillWeight=0;hachureGap=4;hachureAngle=-41;jiggle=1;simplification=0;orthogonalLoop=1;jettySize=auto;html=1;exitX=0;exitY=1;exitDx=0;exitDy=0;startSize=5;endArrow=none;strokeColor=#384023;strokeWidth=3;fillColor=#b0e3e6;fontSize=35;fontColor=#384023;" parent="1" source="iaC6b17GLmA-YWx4HKnk-1582" target="1350" edge="1">
          <mxGeometry relative="1" as="geometry" />
        </mxCell>
        <mxCell id="iaC6b17GLmA-YWx4HKnk-1582" value="VS (Code)" style="rounded=1;strokeWidth=3;shadow=0;fontSize=35;strokeColor=none;fillColor=#8C342A;glass=0;perimeterSpacing=2;arcSize=60;fillOpacity=100;labelBackgroundColor=none;labelBorderColor=none;html=1;fontFamily=Helvetica;absoluteArcSize=0;imageAspect=1;portConstraintRotation=0;container=0;comic=0;fontColor=#EEEEEE;gradientColor=#7D2F26;perimeter=ellipsePerimeter;" parent="1" vertex="1">
          <mxGeometry x="311" y="16" width="230" height="60" as="geometry" />
        </mxCell>
        <mxCell id="iaC6b17GLmA-YWx4HKnk-1622" style="edgeStyle=none;rounded=0;sketch=1;fillWeight=0;hachureGap=4;hachureAngle=-41;jiggle=1;simplification=0;orthogonalLoop=1;jettySize=auto;html=1;exitX=0.5;exitY=0;exitDx=0;exitDy=0;entryX=0.186;entryY=0.891;entryDx=0;entryDy=0;entryPerimeter=0;startSize=5;endArrow=none;strokeColor=#384023;strokeWidth=3;fillColor=#b0e3e6;fontSize=35;fontColor=#384023;" parent="1" source="HrHoS7DWFDjJE60wcqW0-1352" target="1350" edge="1">
          <mxGeometry relative="1" as="geometry" />
        </mxCell>
        <mxCell id="HrHoS7DWFDjJE60wcqW0-1359" style="edgeStyle=none;rounded=0;sketch=1;fillWeight=0;hachureGap=4;hachureAngle=-41;jiggle=1;simplification=0;orthogonalLoop=1;jettySize=auto;html=1;exitX=0.25;exitY=0;exitDx=0;exitDy=0;entryX=0.441;entryY=1;entryDx=0;entryDy=0;entryPerimeter=0;startSize=5;endArrow=none;strokeColor=#384023;strokeWidth=3;fillColor=#b0e3e6;fontSize=35;fontColor=#384023;" edge="1" parent="1" source="iaC6b17GLmA-YWx4HKnk-1584" target="1350">
          <mxGeometry relative="1" as="geometry" />
        </mxCell>
        <mxCell id="iaC6b17GLmA-YWx4HKnk-1584" value="Teleconferencing" style="rounded=1;strokeWidth=3;shadow=0;html=1;fontSize=20;strokeColor=none;glass=0;perimeterSpacing=2;arcSize=60;fillOpacity=100;fontColor=#EEEEEE;absoluteArcSize=0;perimeter=ellipsePerimeter;fillColor=#8C4942;gradientColor=#753D37;" parent="1" vertex="1">
          <mxGeometry x="287" y="311" width="170" height="40" as="geometry" />
        </mxCell>
        <mxCell id="HrHoS7DWFDjJE60wcqW0-1360" style="edgeStyle=none;rounded=0;sketch=1;fillWeight=0;hachureGap=4;hachureAngle=-41;jiggle=1;simplification=0;orthogonalLoop=1;jettySize=auto;html=1;exitX=0;exitY=0;exitDx=0;exitDy=0;entryX=1;entryY=1;entryDx=0;entryDy=0;startSize=5;endArrow=none;strokeColor=#384023;strokeWidth=3;fillColor=#b0e3e6;fontSize=35;fontColor=#384023;" edge="1" parent="1" source="iaC6b17GLmA-YWx4HKnk-1586" target="1350">
          <mxGeometry relative="1" as="geometry" />
        </mxCell>
        <mxCell id="iaC6b17GLmA-YWx4HKnk-1586" value="Mercurial" style="rounded=1;strokeWidth=3;shadow=0;html=1;fontSize=14;strokeColor=none;glass=0;perimeterSpacing=2;arcSize=60;fillOpacity=100;fontColor=#EEEEEE;absoluteArcSize=0;perimeter=ellipsePerimeter;fillColor=#996C65;gradientColor=#825851;" parent="1" vertex="1">
          <mxGeometry x="471" y="311" width="80" height="30" as="geometry" />
        </mxCell>
        <mxCell id="iaC6b17GLmA-YWx4HKnk-1616" style="edgeStyle=none;rounded=0;sketch=1;fillWeight=0;hachureGap=4;hachureAngle=-41;jiggle=1;simplification=0;orthogonalLoop=1;jettySize=auto;html=1;exitX=0;exitY=0.25;exitDx=0;exitDy=0;startSize=5;endArrow=none;strokeColor=#384023;strokeWidth=3;fillColor=#b0e3e6;fontSize=35;fontColor=#384023;" parent="1" source="iaC6b17GLmA-YWx4HKnk-1587" target="1350" edge="1">
          <mxGeometry relative="1" as="geometry" />
        </mxCell>
        <mxCell id="iaC6b17GLmA-YWx4HKnk-1587" value="Notepad++" style="rounded=1;strokeWidth=3;shadow=0;html=1;fontSize=20;glass=0;sketch=0;strokeColor=none;perimeterSpacing=2;arcSize=60;fillOpacity=100;fontColor=#EEEEEE;absoluteArcSize=0;perimeter=ellipsePerimeter;fillColor=#8C4942;gradientColor=#753D37;" parent="1" vertex="1">
          <mxGeometry x="457" y="193" width="130" height="40" as="geometry" />
        </mxCell>
        <mxCell id="iaC6b17GLmA-YWx4HKnk-1617" style="edgeStyle=none;rounded=0;sketch=1;fillWeight=0;hachureGap=4;hachureAngle=-41;jiggle=1;simplification=0;orthogonalLoop=1;jettySize=auto;html=1;exitX=0.5;exitY=0;exitDx=0;exitDy=0;startSize=5;endArrow=none;strokeColor=#384023;strokeWidth=3;fillColor=#b0e3e6;fontSize=35;fontColor=#384023;" parent="1" source="iaC6b17GLmA-YWx4HKnk-1588" edge="1" target="1350">
          <mxGeometry relative="1" as="geometry">
            <mxPoint x="321" y="241" as="targetPoint" />
          </mxGeometry>
        </mxCell>
        <mxCell id="iaC6b17GLmA-YWx4HKnk-1590" value="Linux" style="rounded=1;strokeWidth=3;shadow=0;html=1;fontSize=14;strokeColor=none;glass=0;perimeterSpacing=2;arcSize=60;fillOpacity=100;fontColor=#EEEEEE;absoluteArcSize=0;perimeter=ellipsePerimeter;fillColor=#996C65;gradientColor=#825851;" parent="1" vertex="1">
          <mxGeometry x="331" y="91" width="80" height="30" as="geometry" />
        </mxCell>
        <mxCell id="HrHoS7DWFDjJE60wcqW0-1356" style="edgeStyle=none;rounded=0;sketch=1;fillWeight=0;hachureGap=4;hachureAngle=-41;jiggle=1;simplification=0;orthogonalLoop=1;jettySize=auto;html=1;exitX=1;exitY=0.5;exitDx=0;exitDy=0;startSize=5;endArrow=none;strokeColor=#384023;strokeWidth=3;fillColor=#b0e3e6;fontSize=35;fontColor=#384023;" edge="1" parent="1" source="iaC6b17GLmA-YWx4HKnk-1591" target="1350">
          <mxGeometry relative="1" as="geometry" />
        </mxCell>
        <mxCell id="iaC6b17GLmA-YWx4HKnk-1591" value="OSX" style="rounded=1;strokeWidth=3;shadow=0;html=1;fontSize=14;strokeColor=none;glass=0;perimeterSpacing=2;arcSize=60;fillOpacity=100;fontColor=#EEEEEE;absoluteArcSize=0;perimeter=ellipsePerimeter;fillColor=#996C65;gradientColor=#825851;" parent="1" vertex="1">
          <mxGeometry x="71" y="141" width="80" height="30" as="geometry" />
        </mxCell>
        <mxCell id="HrHoS7DWFDjJE60wcqW0-1358" style="edgeStyle=none;rounded=0;sketch=1;fillWeight=0;hachureGap=4;hachureAngle=-41;jiggle=1;simplification=0;orthogonalLoop=1;jettySize=auto;html=1;exitX=0;exitY=0.5;exitDx=0;exitDy=0;entryX=0.997;entryY=0.348;entryDx=0;entryDy=0;entryPerimeter=0;startSize=5;endArrow=none;strokeColor=#384023;strokeWidth=3;fillColor=#b0e3e6;fontSize=35;fontColor=#384023;" edge="1" parent="1" source="HrHoS7DWFDjJE60wcqW0-1350" target="1350">
          <mxGeometry relative="1" as="geometry" />
        </mxCell>
        <mxCell id="HrHoS7DWFDjJE60wcqW0-1350" value="&lt;div&gt;LaTeX&lt;/div&gt;" style="rounded=1;strokeWidth=3;shadow=0;html=1;fontSize=35;strokeColor=none;fillColor=#8C342A;glass=0;perimeterSpacing=2;arcSize=60;fillOpacity=100;fontColor=#EEEEEE;absoluteArcSize=0;gradientColor=#7D2F26;perimeter=ellipsePerimeter;" vertex="1" parent="1">
          <mxGeometry x="481" y="126" width="180" height="60" as="geometry" />
        </mxCell>
        <mxCell id="iaC6b17GLmA-YWx4HKnk-1588" value="GSuite" style="rounded=1;strokeWidth=3;shadow=0;html=1;fontSize=35;strokeColor=none;fillColor=#8C342A;glass=0;perimeterSpacing=2;arcSize=60;fillOpacity=100;fontColor=#EEEEEE;absoluteArcSize=0;gradientColor=#7D2F26;perimeter=ellipsePerimeter;" parent="1" vertex="1">
          <mxGeometry x="101" y="311" width="180" height="60" as="geometry" />
        </mxCell>
        <mxCell id="HrHoS7DWFDjJE60wcqW0-1353" style="edgeStyle=none;rounded=0;sketch=1;fillWeight=0;hachureGap=4;hachureAngle=-41;jiggle=1;simplification=0;orthogonalLoop=1;jettySize=auto;html=1;exitX=0.5;exitY=0;exitDx=0;exitDy=0;startSize=5;endArrow=none;strokeColor=#384023;strokeWidth=3;fillColor=#b0e3e6;fontSize=35;fontColor=#384023;" edge="1" parent="1" source="iaC6b17GLmA-YWx4HKnk-1584" target="1350">
          <mxGeometry relative="1" as="geometry">
            <mxPoint x="176" y="509" as="sourcePoint" />
            <mxPoint x="224.94000000000005" y="227.78375000000005" as="targetPoint" />
          </mxGeometry>
        </mxCell>
        <mxCell id="HrHoS7DWFDjJE60wcqW0-1352" value="Whiteboarding" style="rounded=1;strokeWidth=3;shadow=0;html=1;fontSize=35;strokeColor=none;fillColor=#8C342A;glass=0;perimeterSpacing=2;arcSize=60;fillOpacity=100;fontColor=#EEEEEE;absoluteArcSize=0;gradientColor=#7D2F26;perimeter=ellipsePerimeter;" vertex="1" parent="1">
          <mxGeometry x="31" y="241" width="250" height="60" as="geometry" />
        </mxCell>
        <mxCell id="HrHoS7DWFDjJE60wcqW0-1361" style="edgeStyle=none;rounded=0;sketch=1;fillWeight=0;hachureGap=4;hachureAngle=-41;jiggle=1;simplification=0;orthogonalLoop=1;jettySize=auto;html=1;exitX=0.25;exitY=0;exitDx=0;exitDy=0;entryX=0.762;entryY=0.975;entryDx=0;entryDy=0;entryPerimeter=0;startSize=5;endArrow=none;strokeColor=#384023;strokeWidth=3;fillColor=#b0e3e6;fontSize=35;fontColor=#384023;" edge="1" parent="1" source="HrHoS7DWFDjJE60wcqW0-1351" target="1350">
          <mxGeometry relative="1" as="geometry" />
        </mxCell>
        <mxCell id="HrHoS7DWFDjJE60wcqW0-1351" value="Presentations" style="rounded=1;strokeWidth=3;shadow=0;html=1;fontSize=35;strokeColor=none;fillColor=#8C342A;glass=0;perimeterSpacing=2;arcSize=60;fillOpacity=100;fontColor=#EEEEEE;absoluteArcSize=0;gradientColor=#7D2F26;perimeter=ellipsePerimeter;" vertex="1" parent="1">
          <mxGeometry x="332" y="245" width="240" height="60" as="geometry" />
        </mxCell>
        <mxCell id="iaC6b17GLmA-YWx4HKnk-1556" value="SVN" style="rounded=1;strokeWidth=3;shadow=0;html=1;fontSize=20;strokeColor=none;fontColor=#EEEEEE;arcSize=60;absoluteArcSize=0;perimeter=ellipsePerimeter;fillColor=#8C4942;gradientColor=#753D37;" parent="1" vertex="1">
          <mxGeometry x="181" y="71" width="100" height="40" as="geometry" />
        </mxCell>
      </root>
    </mxGraphModel>
  </diagram>
</mxfile>
